<svg width="600" height="150" viewBox="0 0 600 150" fill="none" xmlns="http://www.w3.org/2000/svg">
<circle cx="75" cy="25" r="25" fill="#9D97B8"/>
<circle cx="125" cy="75" r="25" fill="#DCE1E7"/>
<path d="M50 50C50 22.3858 27.6142 0 0 0V50H50Z" fill="#DCE1E7"/>
<path d="M150 50C150 22.3858 127.614 0 100 0V50H150Z" fill="#231C48"/>
<path d="M100 150C100 122.386 77.6142 100 50 100V150H100Z" fill="#231C48"/>
<path d="M200 150C200 122.386 177.614 100 150 100V150H200Z" fill="#DCE1E7"/>
<path d="M50 50C22.3858 50 -1.20706e-06 72.3858 0 100L50 100L50 50Z" fill="#231C48"/>
<path d="M200 50C172.386 50 150 72.3858 150 100L200 100L200 50Z" fill="#0B0914"/>
<path d="M50 100C77.6142 100 100 77.6142 100 50L50 50L50 100Z" fill="#0B0914"/>
<path d="M100 150C127.614 150 150 127.614 150 100L100 100L100 150Z" fill="#9D97B8"/>
<path d="M150 0C150 27.6142 172.386 50 200 50L200 4.37114e-06L150 0Z" fill="#9D97B8"/>
<circle cx="275" cy="25" r="25" fill="#9D97B8"/>
<circle cx="225" cy="125" r="25" fill="#0B0914"/>
<circle cx="325" cy="125" r="25" fill="#0B0914"/>
<path d="M250 50C250 22.3858 227.614 0 200 0V50H250Z" fill="#0B0914"/>
<path d="M350 50C350 22.3858 327.614 0 300 0V50H350Z" fill="#0B0914"/>
<path d="M250 150C250 122.386 272.386 100 300 100V150H250Z" fill="#231C48"/>
<path d="M400 75C400 61.1929 388.807 50 375 50H225C211.193 50 200 61.1929 200 75C200 88.8071 211.193 100 225 100L375 100C388.807 100 400 88.8071 400 75Z" fill="#231C48"/>
<path d="M350 100C350 127.614 372.386 150 400 150L400 100L350 100Z" fill="#9D97B8"/>
<path d="M350 50C377.614 50 400 27.6142 400 1.62913e-06L350 0L350 50Z" fill="#9D97B8"/>
<circle cx="475" cy="25" r="25" fill="#0B0914"/>
<circle cx="425" cy="75" r="25" fill="#0B0914"/>
<circle cx="525" cy="125" r="25" fill="#9D97B8"/>
<path d="M450 50C450 22.3858 427.614 0 400 0V50H450Z" fill="#DCE1E7"/>
<path d="M500 -4.37114e-06C500 27.6142 522.386 50 550 50L550 0L500 -4.37114e-06Z" fill="#231C48"/>
<path d="M500 150C500 122.386 477.614 100 450 100V150H500Z" fill="#DCE1E7"/>
<path d="M600 150C600 122.386 577.614 100 550 100V150H600Z" fill="#231C48"/>
<path d="M450 150C450 122.386 427.614 100 400 100L400 150L450 150Z" fill="#231C48"/>
<path d="M600 50C572.386 50 550 72.3858 550 100L600 100L600 50Z" fill="#0B0914"/>
<path d="M450 100C477.614 100 500 77.6142 500 50L450 50L450 100Z" fill="#231C48"/>
<path d="M500 100C527.614 100 550 77.6142 550 50L500 50L500 100Z" fill="#9D97B8"/>
<path d="M550 0C550 27.6142 572.386 50 600 50L600 4.37114e-06L550 0Z" fill="#9D97B8"/>
<path d="M242.806 70.1818H245.366L248.07 76.7784H248.185L250.889 70.1818H253.449V80H251.435V73.6096H251.354L248.813 79.9521H247.442L244.901 73.5856H244.819V80H242.806V70.1818ZM258.283 70.1818L260.656 77.6413H260.747L263.125 70.1818H265.426L262.041 80H259.366L255.977 70.1818H258.283ZM267.958 80V70.1818H270.033V74.2328H274.247V70.1818H276.318V80H274.247V75.9442H270.033V80H267.958ZM281.072 80H278.848L282.237 70.1818H284.912L288.297 80H286.072L283.613 72.4254H283.536L281.072 80ZM280.933 76.1408H286.187V77.7612H280.933V76.1408ZM299.03 73.6191H296.93C296.892 73.3475 296.813 73.1062 296.695 72.8952C296.577 72.6811 296.425 72.4989 296.24 72.3487C296.054 72.1985 295.84 72.0835 295.597 72.0036C295.358 71.9237 295.097 71.8837 294.816 71.8837C294.308 71.8837 293.865 72.0099 293.488 72.2624C293.111 72.5117 292.818 72.8761 292.611 73.3555C292.403 73.8317 292.299 74.4102 292.299 75.0909C292.299 75.7908 292.403 76.3789 292.611 76.8551C292.822 77.3313 293.116 77.6909 293.493 77.9338C293.87 78.1767 294.306 78.2981 294.802 78.2981C295.08 78.2981 295.337 78.2614 295.573 78.1879C295.813 78.1143 296.026 78.0073 296.211 77.8667C296.396 77.7228 296.55 77.5487 296.671 77.3441C296.796 77.1396 296.882 76.9062 296.93 76.6442L299.03 76.6538C298.976 77.1044 298.84 77.5391 298.622 77.9577C298.408 78.3732 298.119 78.7456 297.755 79.0748C297.394 79.4007 296.962 79.6596 296.46 79.8514C295.962 80.04 295.398 80.1342 294.768 80.1342C293.892 80.1342 293.109 79.9361 292.419 79.5398C291.732 79.1435 291.188 78.5698 290.789 77.8187C290.393 77.0676 290.195 76.1584 290.195 75.0909C290.195 74.0202 290.396 73.1094 290.799 72.3583C291.201 71.6072 291.748 71.0352 292.438 70.642C293.128 70.2457 293.905 70.0476 294.768 70.0476C295.337 70.0476 295.864 70.1275 296.35 70.2873C296.839 70.4471 297.272 70.6804 297.649 70.9872C298.026 71.2908 298.333 71.6632 298.57 72.1042C298.809 72.5453 298.963 73.0502 299.03 73.6191ZM301.868 80V70.1818H303.944V74.5108H304.074L307.607 70.1818H310.095L306.452 74.5779L310.138 80H307.655L304.965 75.9634L303.944 77.2099V80H301.868ZM317.773 73.0055C317.735 72.6188 317.57 72.3184 317.279 72.1042C316.989 71.8901 316.594 71.783 316.095 71.783C315.756 71.783 315.47 71.831 315.237 71.9268C315.004 72.0195 314.825 72.149 314.7 72.3152C314.579 72.4814 314.518 72.6699 314.518 72.8809C314.512 73.0566 314.548 73.21 314.628 73.3411C314.711 73.4721 314.825 73.5856 314.969 73.6815C315.112 73.7741 315.279 73.8556 315.467 73.926C315.656 73.9931 315.857 74.0506 316.071 74.0985L316.953 74.3095C317.382 74.4054 317.775 74.5332 318.133 74.693C318.491 74.8528 318.801 75.0494 319.063 75.2827C319.325 75.516 319.528 75.7908 319.672 76.1072C319.819 76.4237 319.894 76.7864 319.897 77.1955C319.894 77.7963 319.74 78.3173 319.437 78.7583C319.136 79.1962 318.702 79.5366 318.133 79.7795C317.567 80.0192 316.885 80.139 316.086 80.139C315.293 80.139 314.603 80.0176 314.015 79.7747C313.43 79.5318 312.973 79.1722 312.644 78.696C312.318 78.2166 312.147 77.6238 312.131 76.9174H314.139C314.162 77.2466 314.256 77.5215 314.422 77.742C314.592 77.9593 314.817 78.1239 315.098 78.2358C315.383 78.3445 315.704 78.3988 316.062 78.3988C316.413 78.3988 316.718 78.3477 316.977 78.2454C317.239 78.1431 317.442 78.0009 317.586 77.8187C317.73 77.6365 317.802 77.4272 317.802 77.1907C317.802 76.9702 317.736 76.7848 317.605 76.6346C317.478 76.4844 317.289 76.3565 317.04 76.2511C316.794 76.1456 316.492 76.0497 316.134 75.9634L315.065 75.695C314.237 75.4936 313.583 75.1788 313.104 74.7505C312.624 74.3223 312.386 73.7454 312.389 73.0199C312.386 72.4254 312.544 71.9061 312.864 71.4618C313.187 71.0176 313.63 70.6708 314.192 70.4215C314.755 70.1722 315.394 70.0476 316.11 70.0476C316.838 70.0476 317.474 70.1722 318.018 70.4215C318.564 70.6708 318.989 71.0176 319.293 71.4618C319.596 71.9061 319.753 72.4206 319.763 73.0055H317.773ZM323.799 80.1246C323.482 80.1246 323.21 80.0128 322.984 79.7891C322.76 79.5621 322.648 79.2905 322.648 78.9741C322.648 78.6609 322.76 78.3924 322.984 78.1687C323.21 77.945 323.482 77.8331 323.799 77.8331C324.105 77.8331 324.374 77.945 324.604 78.1687C324.834 78.3924 324.949 78.6609 324.949 78.9741C324.949 79.185 324.895 79.3784 324.786 79.5542C324.681 79.7267 324.542 79.8658 324.369 79.9712C324.196 80.0735 324.006 80.1246 323.799 80.1246ZM331.495 80H328.014V70.1818H331.523C332.511 70.1818 333.361 70.3784 334.074 70.7715C334.787 71.1614 335.335 71.7223 335.718 72.4542C336.105 73.1861 336.298 74.0618 336.298 75.0813C336.298 76.104 336.105 76.983 335.718 77.718C335.335 78.4531 334.783 79.0172 334.064 79.4103C333.348 79.8034 332.492 80 331.495 80ZM330.09 78.2214H331.408C332.022 78.2214 332.538 78.1127 332.957 77.8954C333.379 77.6749 333.695 77.3345 333.906 76.8743C334.12 76.4109 334.227 75.8132 334.227 75.0813C334.227 74.3558 334.12 73.763 333.906 73.3027C333.695 72.8425 333.38 72.5037 332.962 72.2864C332.543 72.0691 332.027 71.9604 331.413 71.9604H330.09V78.2214ZM339.186 80V70.1818H345.802V71.8933H341.262V74.2328H345.461V75.9442H341.262V78.2885H345.821V80H339.186ZM350.576 70.1818L352.949 77.6413H353.04L355.418 70.1818H357.719L354.334 80H351.659L348.27 70.1818H350.576Z" fill="#DCE1E7"/>
</svg>
